<svg xmlns="http://www.w3.org/2000/svg" fill="none" viewBox="0 0 36 50"><path fill="#000" d="M28.2 0h-.2q-.5.29-.74.82a8 8 0 0 0-.67 1.76.84.84 0 0 1-.76.69 3.8 3.8 0 0 0-2.69 1.95q-.56 1-.95 2.06c-.73 1.9-1.29 3.85-1.98 5.77-.32.87-.34.87-1.32.87-1.16 0-1.08-.18-1.1 1.1 0 .41.13.62.56.6.13 0 .33-.07.39.1s-.13.26-.23.36a4.6 4.6 0 0 1-2.23 1.26c-.97.26-1.97.47-2.92.79-2.45.82-4.7 1.96-6.46 3.9a14 14 0 0 0-2.44 4.04c-1.89 4.46-2.8 9.15-3.51 13.88a97 97 0 0 0-.75 6.7c-.1 1.1-.2 2.23-.2 3.35h17.14q.04-.35-.12-.66a2.6 2.6 0 0 0-1.97-1.58c-.36-.08-.4-.2-.18-.48q.54-.73.82-1.6c.84-2.47 1.16-5.06 1.57-7.62q.35-2.96 1.77-5.59a11 11 0 0 1 2.87-3.28c.43-.32.45-.32.52.23q.06.55.09 1.11.23 3.66-.1 7.31-.3 2.83-.07 5.67.3 3.3 1.16 6.49h6.84a2.8 2.8 0 0 0-2.18-2.29q-.97-.15-1.93.1c-.31.08-.44 0-.46-.33q-.32-4.11.51-8.16a92 92 0 0 0 1.57-9.37c.14-1.27.54-2.5 1.18-3.6.6-1.1 1.14-2.23 1.74-3.33a3 3 0 0 0 .22-2.67q-.2-.56-.44-1.1-.79-1.5-1.5-3c-.26-.52-.2-.59.36-.6.84 0 .84 0 .86-.85v-.34c0-.35-.14-.55-.52-.51h-.78q-.52.02-.37-.52a3.2 3.2 0 0 1 2.64-2.28 11 11 0 0 1 3.4.22.5.5 0 0 0 .65-.33l.66-1.55a.5.5 0 0 0-.05-.58c-1.65-2.1-3.43-4.05-5.87-5.3a.8.8 0 0 1-.45-.58q-.2-1.11-.65-2.14a2 2 0 0 0-.73-.89"/></svg>