<svg xmlns="http://www.w3.org/2000/svg" fill="none" viewBox="0 0 25 30"><path fill="#fff" fill-rule="evenodd" d="M18.62.08a1 1 0 0 1 1.09.21c.9.91 2.1 2.88 3.06 5.92a43 43 0 0 1 1.73 12.79 1 1 0 0 1-1 1h-3.5v9a1 1 0 1 1-2 0v-28a1 1 0 0 1 .62-.92m1.38 17.92h2.5a40 40 0 0 0-1.64-11.19 22 22 0 0 0-.86-2.3zm-14-18a1 1 0 0 1 1 1v28a1 1 0 1 1-2 0v-28a1 1 0 0 1 1-1" clip-rule="evenodd"/><path fill="#fff" fill-rule="evenodd" d="M1.5 0a1 1 0 0 1 1 1v5.5c0 .56.2 1.32.7 1.92.48.56 1.31 1.08 2.8 1.08a1 1 0 1 1 0 2 5.4 5.4 0 0 1-4.33-1.8 5 5 0 0 1-1.17-3.2v-5.5a1 1 0 0 1 1-1" clip-rule="evenodd"/><path fill="#fff" fill-rule="evenodd" d="M10.5 0a1 1 0 0 0-1 1v5.5c0 .56-.2 1.32-.7 1.92-.48.56-1.31 1.08-2.8 1.08a1 1 0 0 0 0 2 5.4 5.4 0 0 0 4.33-1.8 5 5 0 0 0 1.17-3.2v-5.5a1 1 0 0 0-1-1" clip-rule="evenodd"/></svg>