<svg xmlns="http://www.w3.org/2000/svg" fill="none" viewBox="0 0 28 22"><path fill="#666" d="m17.85 10.8-5.24-3.5a.65.65 0 0 0-1.01.55v6.98a.65.65 0 0 0 1.01.54l5.24-3.49a.65.65 0 0 0 0-1.09m-4.94 2.8v-4.51l3.4 2.27zm12.48-8.56a2.4 2.4 0 0 0-1.45-1.63c-3.72-1.42-9.69-1.4-9.94-1.4s-6.22-.02-9.94 1.4a2.4 2.4 0 0 0-1.45 1.64 25 25 0 0 0-.61 6.3c0 3.26.33 5.22.61 6.3a2.4 2.4 0 0 0 1.45 1.63c3.72 1.43 9.69 1.4 9.94 1.4h.08c.75 0 6.31-.04 9.86-1.4a2.4 2.4 0 0 0 1.45-1.64c.28-1.07.61-3.03.61-6.3 0-3.25-.33-5.22-.61-6.29m-1.27 12.27a1.1 1.1 0 0 1-.65.74c-3.5 1.34-9.4 1.32-9.47 1.32s-5.98.02-9.47-1.32a1.1 1.1 0 0 1-.65-.74c-.27-1-.57-2.85-.57-5.97s.3-4.97.57-5.97a1.1 1.1 0 0 1 .65-.74c3.5-1.34 9.4-1.33 9.47-1.33s5.98-.02 9.47 1.32a1.1 1.1 0 0 1 .65.74c.27 1 .57 2.85.57 5.97s-.3 4.96-.57 5.97"/></svg>