<svg xmlns="http://www.w3.org/2000/svg" fill="none" viewBox="0 0 28 22"><path fill="#666" d="M1 5.34q0-1.29 1.55-1.38l3.97.02q.4 0 .53.38.6 1.89 1.37 3.25.76 1.38 1.99 3.16.1.23.34.23.19 0 .3-.18l.07-.28.03-4.35q0-.45-.23-.6t-.83-.23q-.48-.07-.48-.55 0-.1.02-.15.57-1.63 3.2-1.63l1.5-.03q1 0 1.67.48t.67 1.5v5.72q.18.12.34.12.4 0 .7-.45 2.92-3.87 3.17-5.18 0-.03.05-.13.19-.38.61-.65.43-.28.75-.38a1 1 0 0 1 .24-.05h4.13l.26.03q.53 0 .83.47.1.15.15.33a2 2 0 0 1 .06.55v.18a6 6 0 0 1-.94 2.2q-.75 1.17-1.93 2.53t-1.47 1.78q-.24.3-.24.56 0 .2.21.45l3.9 4.63q.3.4.31.88 0 .57-.48.95t-1.14.43l-.46.02h-4.04l-.11.02-.1.01q-.6 0-1.1-.48-.19-.2-2.5-2.97a1 1 0 0 0-.38-.32 39 39 0 0 0-.53 2.24l-.08.42a1.4 1.4 0 0 1-1.12 1.06l-.37.02h-2.61q-2.22 0-4.41-1.9a19 19 0 0 1-3.96-4.95 48 48 0 0 1-3.28-7.05 2 2 0 0 1-.13-.73m16.01 6.51q-.55 0-1.01-.29a.9.9 0 0 1-.45-.79v-5.77q0-.51-.27-.72t-.93-.21l-1.52.05q-1.14 0-1.73.37 1.17.54 1.17 1.71v4.43a1.5 1.5 0 0 1-.53 1.04q-.48.42-1.07.42-.8 0-1.22-.73a26 26 0 0 1-3.1-5.63l-.23-.66-3.55-.02q-.35 0-.38.03-.04.04-.04.22 0 .22.05.48l.56 1.4q2.23 5.46 4.86 8.6 2.62 3.15 5.16 3.15h2.66q.16 0 .24-.09t.13-.34l.06-.25.5-2.21q.22-.45.38-.6.3-.29.69-.28.64 0 1.3.73l2.27 2.71q.22.33.45.33h4.4q.8 0 .8-.38a.5.5 0 0 0-.08-.25l-3.87-4.55q-.45-.53-.45-1.13 0-.61.43-1.16.35-.51 1.34-1.67 1-1.17 1.75-2.19t.98-1.85l.08-.33-.02-.16q0-.11-.03-.19h-4.18q-.4.15-.64.45l-.17.48q-.66 1.74-3.5 5.36-.55.5-1.3.5"/></svg>