<svg xmlns="http://www.w3.org/2000/svg" fill="none" viewBox="0 0 26 29"><path fill="#fff" d="M10.86 0c-1.63 0-2.9 1.37-2.9 3.1s1.27 3.1 2.9 3.1 2.9-1.37 2.9-3.1-1.27-3.1-2.9-3.1m0 1.19c1 0 1.72.84 1.72 1.91 0 1-.79 1.91-1.72 1.91-1 0-1.72-.84-1.72-1.91 0-1 .78-1.91 1.72-1.91m-10.86 23.7c0 1.19.4 2.19 1.36 3 1 .87 2.17.8 2.17.8h19c.78 0 1.82-.39 2.63-1.47.84-1 .79-2.37.79-2.37v-17.32c0-.44-.11-.6-.74-.6-.64 0-.7.27-.7.6v17.31a2.5 2.5 0 0 1-.73 1.74c-.74.63-1.45.54-1.45.54s-18.1 0-19-.02c-.35-.07-.91-.2-1.46-.92-.5-.72-.4-1.64-.4-1.64v-17.32c0-.46-.24-.64-.73-.64q-.74-.01-.74.59zm16.3-16.41c-1.1.24-2.18.38-4.26 2.37s-3.62 1.91-5.16 1.82-3.17-1.55-3.44-1.91c-.34-.36-.9-.12-1.09.12-.15.23-.15.64.11 1 1.27 1.18 2.45 2.1 4.7 2.28a7.5 7.5 0 0 0 5.9-2.28c1.44-1.46 2.16-1.73 3.25-1.91a6.3 6.3 0 0 1 5.07 1.27c1 1.1 1.26.79 1.54.48.54-.72-.23-1.28-1.09-1.92a7.2 7.2 0 0 0-5.52-1.28zm-9.06 7.2c-1.18 0-2.08 1-2.08 2.28s.9 2.28 2.08 2.28 2.08-1 2.08-2.28-.9-2.28-2.08-2.28m11.77.79c-1.54 0-2.8 1.36-2.8 3 0 1.65 1.26 3.01 2.8 3.01s2.8-1.36 2.8-3c0-1.65-1.26-3.01-2.8-3.01m0 1.45c.8 0 1.44.7 1.44 1.55 0 .87-.65 1.55-1.44 1.55-.8 0-1.45-.7-1.45-1.55s.65-1.55 1.45-1.55"/></svg>