<svg xmlns="http://www.w3.org/2000/svg" fill="none" viewBox="0 0 26 32"><path fill="#fff" d="M5.53 0c-1.06 0-1.06 1.6 0 1.6h6.64v1.6c-6.8.45-12.17 6.28-12.17 13.39 0 4.04 1.74 7.68 4.49 10.13.48.43.54 1.18.1 1.65l-1.52 1.56c-.75.7.36 1.76 1.03 1l2-2.04c.34-.34.86-.42 1.3-.21a12.6 12.6 0 0 0 11.05.06c.42-.21.96-.13 1.3.21l1.93 1.99c.68.64 1.65-.32 1.04-1l-1.45-1.5c-.44-.45-.38-1.2.11-1.64a13.5 13.5 0 0 0 4.59-10.22c0-7.11-5.4-12.95-12.21-13.36v-1.63h6.63c1.06 0 1.06-1.59 0-1.59zm-4.1 16.57c0-6.57 5.17-11.89 11.55-11.89 6.37 0 11.54 5.32 11.54 11.9s-5.17 11.9-11.54 11.9-11.55-5.32-11.55-11.9m10.75-8.14c0-1.1 1.65-1.1 1.65 0v8.69a.85.85 0 0 1-.85.85.8.8 0 0 1-.8-.8zm-4.98 2.62a1.16 1.16 0 0 0 0-2.31 1.16 1.16 0 0 0 0 2.3zm11.54 0a1.16 1.16 0 0 0 0-2.31 1.16 1.16 0 0 0 0 2.3zm-10.37 12.67c0 1.54-2.32 1.54-2.32 0s2.32-1.54 2.32 0m4.61 3.46a1.16 1.16 0 1 0 .22-2.3 1.16 1.16 0 0 0-.22 2.3m-8.08-10.45a1.16 1.16 0 1 1-2.3.23 1.16 1.16 0 0 1 2.3-.23m17.3 1.16a1.16 1.16 0 1 0 .23-2.3 1.16 1.16 0 0 0-.22 2.3m-2.3 5.84c0 1.53-2.31 1.53-2.31 0 0-1.55 2.31-1.55 2.31 0"/></svg>