<svg xmlns="http://www.w3.org/2000/svg" fill="none" viewBox="0 0 80 83"><path fill="#fff" d="M65.66 35.83h-51.27a3.27 3.27 0 0 1-3.26-3.26v-9.78c0-1.8 1.46-3.26 3.26-3.26h51.27c1.8 0 3.26 1.47 3.26 3.26v9.78c0 1.8-1.46 3.26-3.26 3.26m-51.27-13.8a.77.77 0 0 0-.76.76v9.78c0 .42.34.76.76.76h51.27c.42 0 .76-.34.76-.76v-9.78a.77.77 0 0 0-.76-.76z"/><path fill="#fff" d="M58.5 69.3h-36.95a6.3 6.3 0 0 1-6.28-6.27v-28.45a1.25 1.25 0 0 1 2.5 0v28.45c0 2.08 1.7 3.78 3.78 3.78h36.95c2.08 0 3.78-1.7 3.78-3.78v-28.45a1.25 1.25 0 0 1 2.5 0v28.45a6.3 6.3 0 0 1-6.28 6.28"/><path fill="#fff" d="M40.02 69.3c-.69 0-1.25-.55-1.25-1.24v-33.48a1.25 1.25 0 0 1 2.5 0v33.48c0 .69-.56 1.25-1.25 1.25m-15.6-47.28a8.08 8.08 0 0 1 7.69-14.2c5.96 3.23 9.18 12.24 9.31 12.62l-2.36.83c-.03-.08-3.03-8.48-8.14-11.25a5.58 5.58 0 0 0-5.3 9.8z"/><path fill="#fff" d="m55.62 22.03-1.19-2.2a5.54 5.54 0 0 0 2.25-7.55 5.53 5.53 0 0 0-7.55-2.25c-5.1 2.77-8.12 11.17-8.15 11.25l-2.36-.83c.14-.38 3.36-9.39 9.32-12.62a8 8 0 0 1 6.14-.64c2.07.62 3.77 2 4.8 3.9a8 8 0 0 1 .64 6.14 8 8 0 0 1-3.9 4.8m7.92 30.54h-47.04a1.25 1.25 0 0 1 0-2.5h47.03a1.25 1.25 0 0 1 0 2.5"/></svg>